<svg width="240" height="72" viewBox="0 0 240 72" fill="none" xmlns="http://www.w3.org/2000/svg">
<mask id="mask0" mask-type="alpha" maskUnits="userSpaceOnUse" x="0" y="0" width="240" height="72">
<rect width="240" height="72" fill="#C4C4C4"/>
</mask>
<g mask="url(#mask0)">
<mask id="mask1" mask-type="alpha" maskUnits="userSpaceOnUse" x="0" y="0" width="74" height="72">
<rect width="73.7129" height="72" fill="white"/>
</mask>
<g mask="url(#mask1)">
<path d="M43.1221 53.2695L49.8971 64.7154L53.1709 62.7354L54.3199 58.9448L47.0462 46.6413L43.1221 53.2695Z" fill="#D24D57"/>
<path d="M21.1922 7.94152L17.9944 10.6521L26.5798 25.1474L30.493 18.5298L22.6556 5.28387L21.1922 7.94152Z" fill="#D24D57"/>
<path d="M28.5637 43.3695L19.0244 59.4954L20.2168 63.7836L23.1437 65.806L36.8998 42.5436L40.8239 35.9048L56.0434 10.133L53.5177 6.70242L52.6613 5.50595L48.954 8.86242L28.5637 43.3695Z" fill="#D24D57"/>
<path d="M20.8888 2.27664L16.9646 8.92605H16.9755L4.94292 29.319L4.93208 29.3084L1.0188 35.9472L20.8888 69.6178L24.8129 62.9896L8.85621 35.9578L24.8129 8.92605H36.2275L40.1517 2.27664H20.8888Z" fill="#4573FF"/>
<path d="M48.9106 8.93667L64.8564 35.9578L48.9106 62.979H37.4959L33.5826 69.6179H52.8347L56.7588 62.979L68.7805 42.5967L72.7047 35.9684L68.7914 29.2873L56.748 8.92608L52.8455 2.27667L48.9106 8.93667Z" fill="#4573FF"/>
</g>
<path fill-rule="evenodd" clip-rule="evenodd" d="M106.399 23.8839L99.129 34.2396L91.8329 23.8839H86.0272L96.1628 37.7856L85.5068 52.3469H91.2881L99.1275 41.3784L106.892 52.3469H112.673L102.018 37.7856L112.153 23.8839H106.399Z" fill="#4573FF"/>
<path fill-rule="evenodd" clip-rule="evenodd" d="M128.413 27.616C130.534 27.616 132.183 28.2842 133.313 29.6011C134.405 30.8733 134.985 32.7216 135.037 35.0976H120.97C121.245 32.8087 122.005 30.9864 123.23 29.6752C124.507 28.3094 126.251 27.616 128.413 27.616ZM128.464 23.377C124.567 23.377 121.416 24.7494 119.099 27.4544C116.798 30.1422 115.631 33.8048 115.631 38.3422C115.631 42.8552 116.89 46.4394 119.373 48.9932C121.861 51.5542 125.295 52.8524 129.579 52.8524C131.513 52.8524 133.19 52.7091 134.565 52.4269C135.939 52.1446 137.414 51.673 138.951 51.0258L139.173 50.9322V46.4034L138.659 46.6179C135.73 47.8419 132.728 48.4618 129.734 48.4618C126.952 48.4618 124.772 47.649 123.254 46.0462C121.786 44.4961 120.974 42.2058 120.839 39.2343H140.391V36.2161C140.391 32.3972 139.313 29.2724 137.189 26.9288C135.052 24.5715 132.117 23.377 128.464 23.377Z" fill="#4573FF"/>
<path fill-rule="evenodd" clip-rule="evenodd" d="M160.78 23.3773C158.781 23.3773 156.94 23.7682 155.307 24.5393C153.862 25.2226 152.686 26.1637 151.8 27.3445L151.163 23.8834H146.988V52.3457H152.027V37.4317C152.027 33.9245 152.694 31.3894 154.01 29.8954C155.313 28.4165 157.416 27.6663 160.262 27.6663C162.391 27.6663 163.964 28.1897 164.941 29.2208C165.924 30.2619 166.423 31.8826 166.423 34.0397V52.3457H171.462V33.8878C171.462 30.259 170.552 27.5691 168.757 25.8944C166.967 24.224 164.283 23.3773 160.78 23.3773Z" fill="#4573FF"/>
<path fill-rule="evenodd" clip-rule="evenodd" d="M190.66 48.6139C188.188 48.6139 186.37 47.7773 185.102 46.0551C183.824 44.3206 183.176 41.6926 183.176 38.2416C183.176 34.8382 183.83 32.1771 185.12 30.3317C186.398 28.5036 188.192 27.6159 190.608 27.6159C193.411 27.6159 195.472 28.4165 196.731 29.9962C198.012 31.6025 198.661 34.3594 198.661 38.1905V39.0768C198.661 42.4507 198.023 44.9153 196.764 46.4035C195.522 47.8702 193.468 48.6139 190.66 48.6139ZM198.662 23.9087L198.767 25.87L198.881 27.13C196.78 24.6388 193.834 23.3774 190.116 23.3774C186.318 23.3774 183.309 24.7 181.172 27.3093C179.055 29.8941 177.982 33.5553 177.982 38.1906C177.982 42.8274 179.051 46.4642 181.161 48.9986C183.289 51.556 186.302 52.8527 190.116 52.8527C193.962 52.8527 196.945 51.533 198.992 48.9287L199.516 52.3466H203.7V12.2397H198.661L198.662 23.9087Z" fill="#4573FF"/>
<path fill-rule="evenodd" clip-rule="evenodd" d="M214.631 13.5814C213.811 13.5814 213.115 13.8399 212.563 14.3504C212.005 14.8666 211.723 15.6658 211.723 16.7257C211.723 17.7661 212.004 18.5645 212.558 19.0959C213.111 19.6265 213.808 19.8958 214.631 19.8958C215.416 19.8958 216.103 19.628 216.673 19.1009C217.248 18.5681 217.539 17.7689 217.539 16.7257C217.539 15.6809 217.247 14.8861 216.671 14.3612C216.101 13.8435 215.415 13.5814 214.631 13.5814Z" fill="#4573FF"/>
<path fill-rule="evenodd" clip-rule="evenodd" d="M212.085 52.3464H217.124V23.884H212.085V52.3464Z" fill="#4573FF"/>
<path fill-rule="evenodd" clip-rule="evenodd" d="M238.835 48.1725C238.437 48.2862 237.886 48.3971 237.197 48.5044C236.51 48.6102 235.789 48.6649 235.052 48.6649C233.733 48.6649 232.73 48.2653 231.984 47.4438C231.238 46.6223 230.859 45.4077 230.859 43.8359V27.8692H239.1V23.884H230.859V17.4544H227.728L225.885 23.475L221.752 25.2491V27.8692H225.82V44.013C225.82 49.8781 228.717 52.8525 234.429 52.8525C235.167 52.8525 236.011 52.7783 236.937 52.6321C237.888 52.4824 238.595 52.2945 239.098 52.0576L239.307 51.9597V48.0378L238.835 48.1725Z" fill="#4573FF"/>
</g>
</svg>
